<svg width="20" height="30" viewBox="0 0 20 30" fill="none" xmlns="http://www.w3.org/2000/svg">
<path fill-rule="evenodd" clip-rule="evenodd" d="M7.98048 2.54405C5.59053 2.4188 3.55155 4.2547 3.4263 6.64465L2.72848 19.9597C2.52615 23.8204 5.49184 27.1141 9.35254 27.3165C13.2132 27.5188 16.507 24.5531 16.7093 20.6924L17.4769 6.04585C17.5058 5.49433 17.9763 5.07066 18.5279 5.09956C19.0794 5.12847 19.5031 5.599 19.4741 6.15053L18.7066 20.7971C18.4464 25.7608 14.2116 29.5739 9.24787 29.3137C4.28412 29.0536 0.471085 24.8188 0.731224 19.855L1.42904 6.53998C1.6121 3.04697 4.59214 0.363732 8.08515 0.546793C11.5782 0.729854 14.2614 3.7099 14.0783 7.20291L13.3805 20.518C13.2745 22.5402 11.5493 24.0937 9.52699 23.9877C7.50472 23.8817 5.95127 22.1564 6.05725 20.1342L6.75506 6.81911C6.78397 6.26758 7.2545 5.84391 7.80603 5.87282C8.35755 5.90172 8.78122 6.37225 8.75232 6.92378L8.05451 20.2388C8.00633 21.1581 8.71245 21.9423 9.63166 21.9905C10.5509 22.0386 11.3351 21.3325 11.3833 20.4133L12.0811 7.09824C12.2063 4.70828 10.3704 2.6693 7.98048 2.54405Z" fill="#FFCF08"/>
</svg>
