<svg width="17" height="20" viewBox="0 0 17 20" fill="none" xmlns="http://www.w3.org/2000/svg">
<path fill-rule="evenodd" clip-rule="evenodd" d="M10.5 19.75H10.5452C11.6796 19.75 12.5943 19.75 13.3238 19.6678C14.0781 19.5828 14.7266 19.4019 15.2829 18.9751C15.5429 18.7756 15.7756 18.5429 15.9751 18.2829C16.4019 17.7266 16.5828 17.0781 16.6678 16.3238C16.75 15.5943 16.75 14.6796 16.75 13.5452V13.5452V13.5V6.5V6.45481C16.75 5.3204 16.75 4.40571 16.6678 3.67622C16.5828 2.92195 16.4019 2.27343 15.9751 1.71714C15.7756 1.45715 15.5429 1.22443 15.2829 1.02493C14.7266 0.598074 14.0781 0.417246 13.3238 0.332215C12.5943 0.249973 11.6796 0.249985 10.5452 0.25H10.5H10C9.58579 0.25 9.25 0.585787 9.25 1C9.25 1.41421 9.58579 1.75 10 1.75H10.5C11.6902 1.75 12.5201 1.75112 13.1557 1.82277C13.7762 1.89272 14.1181 2.02187 14.3697 2.21495C14.5257 2.33466 14.6653 2.47429 14.785 2.63029C14.9781 2.88193 15.1073 3.22376 15.1772 3.84426C15.2489 4.47987 15.25 5.30977 15.25 6.5V13.5C15.25 14.6902 15.2489 15.5201 15.1772 16.1557C15.1073 16.7762 14.9781 17.1181 14.785 17.3697C14.6653 17.5257 14.5257 17.6653 14.3697 17.785C14.1181 17.9781 13.7762 18.1073 13.1557 18.1772C12.5201 18.2489 11.6902 18.25 10.5 18.25H10C9.58579 18.25 9.25 18.5858 9.25 19C9.25 19.4142 9.58578 19.75 10 19.75H10.5ZM6.53033 5.46969C6.23744 5.1768 5.76256 5.1768 5.46967 5.46969C5.17678 5.76258 5.17678 6.23746 5.46967 6.53035L8.18934 9.25002H1C0.585786 9.25002 0.25 9.5858 0.25 10C0.25 10.4142 0.585786 10.75 1 10.75H8.18934L5.46967 13.4697C5.17678 13.7626 5.17678 14.2375 5.46967 14.5303C5.76256 14.8232 6.23744 14.8232 6.53033 14.5303L10.5303 10.5303C10.8232 10.2375 10.8232 9.76258 10.5303 9.46969L6.53033 5.46969Z" fill="#1D1D1D"/>
</svg>
