<svg width="47" height="54" viewBox="0 0 47 54" fill="none" xmlns="http://www.w3.org/2000/svg">
<path fill-rule="evenodd" clip-rule="evenodd" d="M39.3333 54H39.3882H39.3883C40.7559 54 41.8582 54 42.7251 53.8835C43.6252 53.7625 44.3831 53.5036 44.985 52.9017C45.5869 52.2997 45.8458 51.5419 45.9668 50.6418C46.0834 49.7748 46.0834 48.6725 46.0833 47.3049V47.25L46.0833 6.75001V6.69513C46.0834 5.32754 46.0834 4.22522 45.9668 3.35825C45.8458 2.45814 45.5869 1.70027 44.985 1.09835C44.3831 0.496435 43.6252 0.237543 42.7251 0.116525C41.8581 -3.33786e-05 40.7558 -1.81198e-05 39.3883 9.53674e-07H39.3881H39.3333L29.2917 0H27.8333C27.4191 0 27.0833 0.335789 27.0833 0.75C27.0833 1.16422 27.4191 1.5 27.8333 1.5H29.2917L39.3333 1.5C40.7688 1.5 41.7699 1.5016 42.5252 1.60315C43.259 1.7018 43.6476 1.88225 43.9243 2.15901C44.2011 2.43578 44.3815 2.82435 44.4802 3.55812C44.5818 4.31347 44.5833 5.31459 44.5833 6.75001L44.5833 47.25C44.5833 48.6854 44.5818 49.6865 44.4802 50.4419C44.3815 51.1757 44.2011 51.5642 43.9243 51.841C43.6476 52.1178 43.259 52.2982 42.5252 52.3969C41.7699 52.4984 40.7688 52.5 39.3333 52.5H29.2917H27.8333C27.4191 52.5 27.0833 52.8358 27.0833 53.25C27.0833 53.6642 27.4191 54 27.8333 54H29.2917H39.3333ZM16.697 14.8031C16.4041 14.5102 15.9292 14.5102 15.6363 14.8031C15.3435 15.096 15.3435 15.5708 15.6363 15.8637L26.0227 26.2501H1.58334C1.16913 26.2501 0.833344 26.5858 0.833344 27.0001C0.833344 27.4143 1.16913 27.7501 1.58334 27.7501H26.0227L15.6363 38.1364C15.3435 38.4293 15.3435 38.9042 15.6363 39.1971C15.9292 39.4899 16.4041 39.4899 16.697 39.1971L28.3637 27.5304C28.6566 27.2375 28.6566 26.7626 28.3637 26.4697L16.697 14.8031Z" fill="#1D1D1D"/>
</svg>
